<svg width="9" height="6" viewBox="0 0 9 6" fill="none" xmlns="http://www.w3.org/2000/svg">
<path d="M5.07284 4.78727L7.91022 1.66288C7.96872 1.59606 7.99967 1.5203 8 1.44313C8.00032 1.36597 7.97001 1.29009 7.91208 1.22305C7.85415 1.15602 7.77062 1.10015 7.66979 1.06102C7.56896 1.02189 7.45436 1.00085 7.33738 1L1.66262 1C1.54564 1.00085 1.43104 1.02189 1.33021 1.06102C1.22938 1.10015 1.14585 1.15602 1.08792 1.22305C1.02999 1.29009 0.999675 1.36597 1 1.44313C1.00033 1.5203 1.03128 1.59606 1.08978 1.66288L3.92716 4.78727C3.98688 4.85221 4.07097 4.9059 4.17131 4.94316C4.27165 4.98042 4.38485 5 4.5 5C4.61515 5 4.72835 4.98042 4.82869 4.94316C4.92903 4.9059 5.01312 4.85221 5.07284 4.78727Z" fill="#172B4D" stroke="#172B4D" stroke-linecap="round" stroke-linejoin="round"/>
</svg>
