<svg width="12" height="12" viewBox="0 0 12 12" fill="none" xmlns="http://www.w3.org/2000/svg">
<path d="M2.66669 1V7.66667" stroke="#172B4D" stroke-width="1.45" stroke-linecap="round" stroke-linejoin="round"/>
<path d="M9.33335 4.33333C10.2538 4.33333 11 3.58714 11 2.66667C11 1.74619 10.2538 1 9.33335 1C8.41288 1 7.66669 1.74619 7.66669 2.66667C7.66669 3.58714 8.41288 4.33333 9.33335 4.33333Z" stroke="#172B4D" stroke-width="1.45" stroke-linecap="round" stroke-linejoin="round"/>
<path d="M2.66667 11C3.58714 11 4.33334 10.2538 4.33334 9.33332C4.33334 8.41285 3.58714 7.66666 2.66667 7.66666C1.74619 7.66666 1 8.41285 1 9.33332C1 10.2538 1.74619 11 2.66667 11Z" stroke="#172B4D" stroke-width="1.45" stroke-linecap="round" stroke-linejoin="round"/>
<path d="M9.33338 4.33334C9.33338 5.65943 8.80659 6.9312 7.86891 7.86888C6.93123 8.80656 5.65946 9.33334 4.33337 9.33334" stroke="#172B4D" stroke-width="1.45" stroke-linecap="round" stroke-linejoin="round"/>
</svg>
