<svg width="12" height="12" viewBox="0 0 12 12" fill="none" xmlns="http://www.w3.org/2000/svg">
<path d="M9.33335 11C10.2538 11 11 10.2538 11 9.33334C11 8.41286 10.2538 7.66667 9.33335 7.66667C8.41288 7.66667 7.66669 8.41286 7.66669 9.33334C7.66669 10.2538 8.41288 11 9.33335 11Z" stroke="#172B4D" stroke-width="1.45" stroke-linecap="round" stroke-linejoin="round"/>
<path d="M2.66667 4.33333C3.58714 4.33333 4.33333 3.58714 4.33333 2.66667C4.33333 1.74619 3.58714 1 2.66667 1C1.74619 1 1 1.74619 1 2.66667C1 3.58714 1.74619 4.33333 2.66667 4.33333Z" stroke="#172B4D" stroke-width="1.45" stroke-linecap="round" stroke-linejoin="round"/>
<path d="M6.55554 2.66667H8.22221C8.51689 2.66667 8.79951 2.78373 9.00788 2.99211C9.21626 3.20048 9.33332 3.4831 9.33332 3.77778V7.66667" stroke="#172B4D" stroke-width="1.45" stroke-linecap="round" stroke-linejoin="round"/>
<path d="M2.66669 4.33333V11" stroke="#172B4D" stroke-width="1.45" stroke-linecap="round" stroke-linejoin="round"/>
</svg>
