<svg width="417" height="116" viewBox="0 0 417 116" fill="none" xmlns="http://www.w3.org/2000/svg">
<path d="M61.0792 0.948257L110.286 26.3531C111.489 26.9743 112.488 27.8678 113.183 28.9438C113.877 30.0197 114.243 31.2402 114.243 32.4826V83.2924C114.243 84.5348 113.877 85.7553 113.183 86.8312C112.488 87.9072 111.489 88.8006 110.286 89.4218L61.0792 114.827C59.8759 115.448 58.511 115.775 57.1216 115.775C55.7323 115.775 54.3673 115.448 53.1641 114.827L3.95753 89.4218C2.75432 88.8006 1.75516 87.9072 1.06047 86.8312C0.365777 85.7553 3.5295e-05 84.5348 0 83.2924V32.4826C3.5295e-05 31.2402 0.365777 30.0197 1.06047 28.9438C1.75516 27.8678 2.75432 26.9743 3.95753 26.3531L53.1641 0.948257C54.3673 0.327043 55.7323 0 57.1216 0C58.511 0 59.8759 0.327043 61.0792 0.948257Z" fill="url(#paint0_linear_498:129)"/>
<path d="M17.9446 87.852V38.5094L57.0817 18.5115L96.2285 38.5094V78.3657L57.0817 98.3673L36.3638 87.7791V48.0674L57.0817 37.4804L77.8079 48.0674V68.8065L57.0817 79.3947L54.7843 78.2211V57.6278L66.3638 51.708L57.0817 46.9667L45.5741 52.8507V82.9982L57.0817 88.881L87.0182 73.5836V43.2903L57.0817 27.9978L27.1549 43.2903V92.5562L57.0817 107.854L105.437 83.1465V33.7323L57.0817 9.02524L8.73438 33.7323V83.1465L17.9446 87.852Z" fill="white"/>
<path d="M164.248 87.3264C167.265 87.7445 170.199 87.9577 173.032 87.9577C178.295 87.9577 182.824 87.228 186.611 85.7767C190.398 84.3172 193.286 82.2428 195.285 79.5453C197.275 76.8477 198.274 73.6336 198.274 69.903C198.274 65.4672 196.862 61.8759 194.02 59.1374C191.177 56.3988 186.923 54.2998 181.238 52.8485L176.544 51.6187C174.38 51.0365 172.711 50.438 171.528 49.8312C170.345 49.2245 169.502 48.5193 168.998 47.7076C168.493 46.9041 168.246 45.9202 168.246 44.7559C168.246 42.6159 169.273 40.9432 171.326 39.7544C173.38 38.5655 176.764 37.9751 181.467 37.9751C183.796 37.9751 186.125 38.1145 188.454 38.4097C190.774 38.6967 192.929 39.1066 194.909 39.6396V29.3659C192.892 28.8576 190.636 28.464 188.115 28.177C185.603 27.8819 182.999 27.7343 180.312 27.7343C174.636 27.7343 169.859 28.4476 165.999 29.8825C162.148 31.3091 159.242 33.3507 157.307 36.0073C155.372 38.6639 154.4 41.8616 154.4 45.5922C154.4 54.0292 159.737 59.6293 170.419 62.4089L175.122 63.6797C177.516 64.3111 179.386 64.9506 180.734 65.6066C182.082 66.2543 183.035 66.9922 183.595 67.8204C184.154 68.6567 184.438 69.698 184.438 70.9361C184.438 75.4621 180.56 77.725 172.812 77.725C170.153 77.725 167.356 77.5037 164.431 77.0691C161.497 76.6345 158.71 76.0442 156.042 75.2981V85.5389C158.499 86.3015 161.231 86.9 164.248 87.3264ZM209.589 82.4806C213.376 86.1867 218.776 88.0397 225.781 88.0397C232.796 88.0397 238.187 86.1703 241.974 82.4396C245.761 78.7172 247.65 73.0925 247.65 65.582C247.65 58.1207 245.761 52.5124 241.974 48.7407C238.187 44.9773 232.796 43.0914 225.781 43.0914C218.74 43.0914 213.339 44.9527 209.571 48.6833C205.793 52.414 203.913 58.0879 203.913 65.705C203.913 73.1827 205.802 78.7827 209.589 82.4806ZM230.265 77.725C229.11 78.4876 227.615 78.8729 225.781 78.8729C223.948 78.8729 222.453 78.4876 221.298 77.725C220.152 76.9543 219.262 75.6014 218.639 73.6582C218.015 71.715 217.713 69.0093 217.713 65.541C217.713 62.1055 218.015 59.4243 218.639 57.4893C219.262 55.5625 220.152 54.2014 221.325 53.4225C222.49 52.6436 223.975 52.25 225.781 52.25C227.588 52.25 229.073 52.6436 230.238 53.4225C231.411 54.2014 232.301 55.5707 232.924 57.5303C233.548 59.4899 233.859 62.2121 233.859 65.705C233.859 69.1158 233.548 71.7806 232.924 73.6992C232.301 75.6096 231.42 76.9543 230.265 77.725ZM258.918 84.1287C261.614 86.6786 265.254 87.9577 269.839 87.9577C275.037 87.9577 279.347 86.2113 282.749 82.7184H283.363L284.344 87.2034H295.613V43.8048H282.033V74.0354C281.117 75.0603 279.943 75.8638 278.503 76.4296C277.073 77.0035 275.679 77.2823 274.313 77.2823C272.452 77.2823 271.012 76.7985 269.995 75.8146C268.968 74.8389 268.463 73.2237 268.463 70.9771V43.8048H254.884V71.9282C254.884 77.5119 256.232 81.5787 258.918 84.1287ZM305.194 43.8048V87.2034H318.765V58.4404C319.828 57.1695 321.35 56.1774 323.312 55.4477C325.284 54.718 327.301 54.3572 329.373 54.3572C331.326 54.3572 332.848 54.4638 333.939 54.677V43.485C332.582 43.2718 331.354 43.1652 330.253 43.1652C327.539 43.1652 325.119 43.6982 323.001 44.7559C320.892 45.8136 319.223 47.4534 318.013 49.6754H317.389L316.326 43.8048H305.194ZM342.632 82.5052C346.565 86.1949 352.323 88.0397 359.888 88.0397C361.813 88.0397 363.748 87.9003 365.701 87.6215C367.654 87.3428 369.488 86.9492 371.202 86.449V76.6509C367.892 77.5529 365.004 78.0038 362.556 78.0038C359.888 78.0038 357.706 77.5939 355.991 76.7903C354.276 75.9868 352.974 74.6503 352.103 72.8055C351.232 70.9525 350.801 68.4763 350.801 65.3852C350.801 62.4253 351.26 60.0475 352.177 58.26C353.094 56.4808 354.496 55.1771 356.385 54.3572C358.283 53.5373 360.75 53.1273 363.794 53.1273C366.159 53.1273 368.635 53.3487 371.202 53.7997V44.0016C368.305 43.3948 365.077 43.0914 361.529 43.0914C353.552 43.0914 347.418 44.9117 343.145 48.5603C338.872 52.2172 336.736 57.8829 336.736 65.582C336.736 73.1745 338.698 78.8155 342.632 82.5052ZM416.012 69.1568V65.7378C416.012 58.3338 414.343 52.7092 411.024 48.8637C407.695 45.0101 402.808 43.0914 396.362 43.0914C389.586 43.0914 384.369 45.0019 380.72 48.8227C377.071 52.6436 375.237 58.1617 375.237 65.3852C375.237 70.6983 376.117 75.0275 377.877 78.3564C379.638 81.6853 382.343 84.1369 386.001 85.6947C389.651 87.2526 394.373 88.0397 400.177 88.0397C402.359 88.0397 404.532 87.9167 406.668 87.6789C408.814 87.4411 411.097 87.0558 413.527 86.531V77.0445C409.116 78.0038 405.256 78.4794 401.946 78.4794C398.81 78.4794 396.326 78.176 394.492 77.5857C392.658 76.9871 391.31 76.0196 390.439 74.6913C389.559 73.3548 389.064 71.51 388.954 69.1568H416.012ZM392.255 52.0122C393.3 51.3563 394.639 51.0201 396.271 51.0201C397.866 51.0201 399.168 51.3563 400.177 52.0122C401.176 52.6764 401.946 53.7997 402.478 55.3903C403.01 56.9728 403.294 59.1456 403.322 61.8923H388.908C388.935 59.1456 389.238 56.9728 389.816 55.3903C390.393 53.7997 391.2 52.6764 392.255 52.0122Z" fill="#172B4D"/>
<defs>
<linearGradient id="paint0_linear_498:129" x1="-3.80638" y1="112.371" x2="104.484" y2="-8.72736" gradientUnits="userSpaceOnUse">
<stop offset="0.05" stop-color="#880AF5"/>
<stop offset="0.95" stop-color="#0B00F5"/>
</linearGradient>
</defs>
</svg>
