<svg width="42" height="42" viewBox="0 0 42 42" fill="none" xmlns="http://www.w3.org/2000/svg">
<path d="M22.4549 0.344002L40.5451 9.5602C40.9874 9.78556 41.3547 10.1097 41.6101 10.5C41.8655 10.8903 42 11.3331 42 11.7838V30.2162C42 30.6669 41.8655 31.1097 41.6101 31.5C41.3547 31.8903 40.9874 32.2144 40.5451 32.4398L22.4549 41.656C22.0126 41.8814 21.5108 42 21 42C20.4892 42 19.9874 41.8814 19.5451 41.656L1.45493 32.4398C1.01259 32.2144 0.645259 31.8903 0.389866 31.5C0.134473 31.1097 1.29757e-05 30.6669 0 30.2162V11.7838C1.29757e-05 11.3331 0.134473 10.8903 0.389866 10.5C0.645259 10.1097 1.01259 9.78556 1.45493 9.5602L19.5451 0.344002C19.9874 0.118642 20.4892 0 21 0C21.5108 0 22.0126 0.118642 22.4549 0.344002Z" fill="url(#paint0_linear_498:223)"/>
<path d="M6.59721 31.8703V13.9702L20.9854 6.71547L35.3772 13.9702V28.4289L20.9854 35.685L13.3688 31.8439V17.4375L20.9854 13.5969L28.6052 17.4375V24.9611L20.9854 28.8022L20.1408 28.3765V20.9058L24.3979 18.7582L20.9854 17.0382L16.7548 19.1728V30.1095L20.9854 32.2436L31.9912 26.6941V15.7045L20.9854 10.1568L9.98324 15.7045V33.5769L20.9854 39.1263L38.7627 30.1633V12.2372L20.9854 3.27411L3.21118 12.2372V30.1633L6.59721 31.8703Z" fill="white"/>
<defs>
<linearGradient id="paint0_linear_498:223" x1="-1.39936" y1="40.7652" x2="37.8237" y2="-3.6852" gradientUnits="userSpaceOnUse">
<stop offset="0.05" stop-color="#172B4D" stop-opacity="0.5"/>
</linearGradient>
</defs>
</svg>
