<svg width="21" height="22" viewBox="0 0 21 22" fill="none" xmlns="http://www.w3.org/2000/svg">
<path d="M17.2881 1H3.03602C1.91156 1 1 1.9689 1 3.1641V18.3128C1 19.508 1.91156 20.4769 3.03602 20.4769H17.2881C18.4126 20.4769 19.3242 19.508 19.3242 18.3128V3.1641C19.3242 1.9689 18.4126 1 17.2881 1Z" fill="#D07E01" stroke="#D07E01" stroke-width="2" stroke-linecap="round" stroke-linejoin="round"/>
<path d="M8.86797 4.84681L4.20164 13.6687C4.10543 13.8574 4.05453 14.0713 4.05399 14.2892C4.05345 14.5071 4.1033 14.7213 4.19857 14.9106C4.29385 15.0999 4.43123 15.2576 4.59705 15.3681C4.76286 15.4786 4.95134 15.538 5.14372 15.5404H14.4764C14.6688 15.538 14.8572 15.4786 15.023 15.3681C15.1889 15.2576 15.3262 15.0999 15.4215 14.9106C15.5168 14.7213 15.5666 14.5071 15.5661 14.2892C15.5656 14.0713 15.5147 13.8574 15.4185 13.6687L10.7521 4.84681C10.6539 4.66345 10.5156 4.51185 10.3506 4.40664C10.1856 4.30143 9.99942 4.24615 9.81005 4.24615C9.62068 4.24615 9.4345 4.30143 9.26948 4.40664C9.10447 4.51185 8.96618 4.66345 8.86797 4.84681V4.84681Z" stroke="white" stroke-width="1.8" stroke-linecap="round" stroke-linejoin="round"/>
<path d="M9.81006 8.05365V10.5492" stroke="white" stroke-width="1.8" stroke-linecap="round" stroke-linejoin="round"/>
<path d="M9.81006 13.0448H9.81595" stroke="white" stroke-width="1.8" stroke-linecap="round" stroke-linejoin="round"/>
</svg>
