<svg width="21" height="22" viewBox="0 0 21 22" fill="none" xmlns="http://www.w3.org/2000/svg">
<path d="M17.2881 1H3.03602C1.91156 1 1 1.9689 1 3.1641V18.3128C1 19.508 1.91156 20.4769 3.03602 20.4769H17.2881C18.4126 20.4769 19.3242 19.508 19.3242 18.3128V3.1641C19.3242 1.9689 18.4126 1 17.2881 1Z" fill="#59B663" stroke="#59B663" stroke-width="2" stroke-linecap="round" stroke-linejoin="round"/>
<path d="M13.0099 12.4971C12.9211 13.4493 12.5931 14.1814 12.026 14.6934C11.459 15.2012 10.6888 15.4552 9.7155 15.4552C9.05957 15.4552 8.47771 15.2901 7.96989 14.96C7.46631 14.6257 7.07487 14.1539 6.79558 13.5445C6.51628 12.9309 6.37452 12.2305 6.37028 11.4434V10.0152C6.37028 9.2281 6.50782 8.52563 6.78288 7.90779C7.05795 7.28572 7.44939 6.80541 7.9572 6.46687C8.46924 6.12833 9.05534 5.95906 9.7155 5.95906C10.6803 5.95906 11.4484 6.21297 12.0197 6.72078C12.591 7.22859 12.9211 7.95646 13.0099 8.90437H12.6672C12.5698 8.05379 12.2736 7.40844 11.7785 6.96834C11.2834 6.524 10.5957 6.30183 9.7155 6.30183C8.81836 6.30183 8.09262 6.64038 7.53825 7.31746C6.98812 7.99454 6.71306 8.90226 6.71306 10.0406V11.399C6.71306 12.1269 6.83578 12.7722 7.08122 13.335C7.32666 13.8936 7.6779 14.3295 8.13493 14.6427C8.5962 14.9558 9.12305 15.1124 9.7155 15.1124C10.5999 15.1124 11.2897 14.8944 11.7848 14.4586C12.2842 14.0227 12.5783 13.3689 12.6672 12.4971H13.0099Z" fill="white"/>
<path d="M13.0099 12.4971L13.7567 12.5668C13.7763 12.3567 13.7065 12.1481 13.5644 11.9921C13.4222 11.8361 13.221 11.7471 13.0099 11.7471V12.4971ZM12.026 14.6934L12.5264 15.2522L12.5287 15.2501L12.026 14.6934ZM7.96989 14.96L7.55506 15.5849L7.56115 15.5889L7.96989 14.96ZM6.79558 13.5445L6.11296 13.8552L6.11378 13.857L6.79558 13.5445ZM6.37028 11.4434H5.62027L5.6203 11.4475L6.37028 11.4434ZM6.78288 7.90779L7.46805 8.21283L7.46882 8.2111L6.78288 7.90779ZM7.9572 6.46687L7.54356 5.84124L7.54117 5.84284L7.9572 6.46687ZM13.0099 8.90437V9.65437C13.221 9.65437 13.4223 9.56542 13.5645 9.40935C13.7066 9.25327 13.7764 9.04453 13.7567 8.83437L13.0099 8.90437ZM12.6672 8.90437L11.922 8.98964C11.9654 9.36839 12.2859 9.65437 12.6672 9.65437V8.90437ZM11.7785 6.96834L11.2775 7.52653L11.2802 7.5289L11.7785 6.96834ZM7.53825 7.31746L6.95794 6.84233L6.95617 6.84451L7.53825 7.31746ZM7.08122 13.335L6.39375 13.6348L6.39458 13.6367L7.08122 13.335ZM8.13493 14.6427L7.71101 15.2614L7.71367 15.2632L8.13493 14.6427ZM11.7848 14.4586L11.2916 13.8935L11.2893 13.8956L11.7848 14.4586ZM12.6672 12.4971V11.7471C12.2824 11.7471 11.96 12.0383 11.921 12.4211L12.6672 12.4971ZM12.2632 12.4274C12.1872 13.2415 11.9182 13.7803 11.5234 14.1368L12.5287 15.2501C13.268 14.5825 13.6549 13.6571 13.7567 12.5668L12.2632 12.4274ZM11.5257 14.1347C11.1312 14.488 10.5572 14.7052 9.7155 14.7052V16.2052C10.8204 16.2052 11.7868 15.9145 12.5264 15.2521L11.5257 14.1347ZM9.7155 14.7052C9.19211 14.7052 8.75467 14.5756 8.37864 14.3312L7.56115 15.5889C8.20074 16.0046 8.92704 16.2052 9.7155 16.2052V14.7052ZM8.38471 14.3352C8.00989 14.0864 7.70503 13.7287 7.47738 13.232L6.11378 13.857C6.44472 14.579 6.92274 15.1651 7.55508 15.5849L8.38471 14.3352ZM7.47819 13.2338C7.24948 12.7313 7.12403 12.1382 7.12027 11.4394L5.6203 11.4475C5.625 12.3228 5.78308 13.1305 6.11296 13.8552L7.47819 13.2338ZM7.12028 11.4434V10.0152H5.62028V11.4434H7.12028ZM7.12028 10.0152C7.12028 9.31613 7.24217 8.7202 7.46805 8.21283L6.09772 7.60275C5.77347 8.33106 5.62028 9.14008 5.62028 10.0152H7.12028ZM7.46882 8.2111C7.69304 7.70401 7.99732 7.34151 8.37322 7.09091L7.54117 5.84284C6.90145 6.26932 6.42285 6.86744 6.09695 7.60449L7.46882 8.2111ZM8.37083 7.0925C8.75083 6.84126 9.19081 6.70906 9.7155 6.70906V5.20906C8.91987 5.20906 8.18765 5.4154 7.54356 5.84125L8.37083 7.0925ZM9.7155 6.70906C10.5465 6.70906 11.1206 6.92504 11.5214 7.28134L12.518 6.16022C11.7762 5.50089 10.8142 5.20906 9.7155 5.20906V6.70906ZM11.5214 7.28134C11.9181 7.63392 12.1875 8.16695 12.2632 8.97438L13.7567 8.83437C13.6546 7.74596 13.2639 6.82326 12.518 6.16022L11.5214 7.28134ZM13.0099 8.15437H12.6672V9.65437H13.0099V8.15437ZM13.4123 8.81911C13.3003 7.84021 12.9463 7.00296 12.2768 6.40778L11.2802 7.5289C11.6009 7.81392 11.8394 8.26737 11.922 8.98964L13.4123 8.81911ZM12.2794 6.41016C11.6072 5.80692 10.7197 5.55183 9.7155 5.55183V7.05183C10.4717 7.05183 10.9595 7.24108 11.2776 7.52652L12.2794 6.41016ZM9.7155 5.55183C8.60007 5.55183 7.65887 5.98625 6.95795 6.84233L8.11856 7.79258C8.52637 7.2945 9.03666 7.05183 9.7155 7.05183V5.55183ZM6.95617 6.84451C6.2681 7.69136 5.96306 8.78307 5.96306 10.0406H7.46306C7.46306 9.02145 7.70814 8.29772 8.12034 7.7904L6.95617 6.84451ZM5.96306 10.0406V11.399H7.46306V10.0406H5.96306ZM5.96306 11.399C5.96306 12.2112 6.10015 12.9616 6.39375 13.6348L7.7687 13.0352C7.57141 12.5828 7.46306 12.0425 7.46306 11.399H5.96306ZM6.39458 13.6367C6.69042 14.31 7.12703 14.8612 7.71101 15.2614L8.55886 14.024C8.22877 13.7978 7.96291 13.4772 7.76786 13.0333L6.39458 13.6367ZM7.71367 15.2632C8.30717 15.6661 8.98275 15.8624 9.7155 15.8624V14.3624C9.26336 14.3624 8.88522 14.2455 8.5562 14.0221L7.71367 15.2632ZM9.7155 15.8624C10.7195 15.8624 11.6075 15.6139 12.2804 15.0215L11.2893 13.8956C10.9719 14.175 10.4804 14.3624 9.7155 14.3624V15.8624ZM12.278 15.0236C12.9618 14.4267 13.3115 13.5716 13.4133 12.5732L11.921 12.4211C11.8451 13.1661 11.6066 13.6187 11.2916 13.8935L12.278 15.0236ZM12.6672 13.2471H13.0099V11.7471H12.6672V13.2471Z" fill="white"/>
</svg>
