<svg width="22" height="23" viewBox="0 0 22 23" fill="none" xmlns="http://www.w3.org/2000/svg">
<path d="M18.1832 1.54871H3.93104C2.80658 1.54871 1.89502 2.51761 1.89502 3.71281V18.8615C1.89502 20.0567 2.80658 21.0256 3.93104 21.0256H18.1832C19.3076 21.0256 20.2192 20.0567 20.2192 18.8615V3.71281C20.2192 2.51761 19.3076 1.54871 18.1832 1.54871Z" fill="#4F4CDE" stroke="#4F4CDE" stroke-width="2" stroke-linecap="round" stroke-linejoin="round"/>
<path d="M7.75114 6.6347L11.5534 15.3754L15.3683 6.6347H15.8698V15.8769H15.527V7.14252L11.693 15.8769H11.4201L7.60515 7.18695V15.8769H7.26237V6.6347H7.75114Z" fill="white"/>
<path d="M7.75114 6.6347L8.43889 6.33553C8.3198 6.06177 8.04969 5.8847 7.75114 5.8847V6.6347ZM11.5534 15.3754L10.8656 15.6746C10.9847 15.9482 11.2546 16.1252 11.5529 16.1254C11.8513 16.1256 12.1214 15.9489 12.2408 15.6754L11.5534 15.3754ZM15.3683 6.6347V5.8847C15.0701 5.8847 14.8002 6.06138 14.681 6.33469L15.3683 6.6347ZM15.8698 6.6347H16.6198C16.6198 6.22049 16.284 5.8847 15.8698 5.8847V6.6347ZM15.8698 15.8769V16.6269C16.284 16.6269 16.6198 16.2911 16.6198 15.8769H15.8698ZM15.527 15.8769H14.777C14.777 16.2911 15.1128 16.6269 15.527 16.6269V15.8769ZM15.527 7.14252H16.277C16.277 6.78766 16.0283 6.48137 15.681 6.4085C15.3337 6.33563 14.9829 6.51613 14.8403 6.84107L15.527 7.14252ZM11.693 15.8769V16.6269C11.9907 16.6269 12.2602 16.4509 12.3798 16.1783L11.693 15.8769ZM11.4201 15.8769L10.7334 16.1784C10.853 16.4509 11.1225 16.6269 11.4201 16.6269V15.8769ZM7.60515 7.18695L8.29189 6.88547C8.14924 6.56055 7.79841 6.38006 7.45112 6.45294C7.10384 6.52581 6.85515 6.8321 6.85515 7.18695H7.60515ZM7.60515 15.8769V16.6269C8.01936 16.6269 8.35515 16.2911 8.35515 15.8769H7.60515ZM7.26237 15.8769H6.51237C6.51237 16.2911 6.84816 16.6269 7.26237 16.6269V15.8769ZM7.26237 6.6347V5.8847C6.84816 5.8847 6.51237 6.22049 6.51237 6.6347H7.26237ZM7.0634 6.93388L10.8656 15.6746L12.2411 15.0763L8.43889 6.33553L7.0634 6.93388ZM12.2408 15.6754L16.0557 6.93472L14.681 6.33469L10.866 15.0754L12.2408 15.6754ZM15.3683 7.3847H15.8698V5.8847H15.3683V7.3847ZM15.1198 6.6347V15.8769H16.6198V6.6347H15.1198ZM15.8698 15.1269H15.527V16.6269H15.8698V15.1269ZM16.277 15.8769V7.14252H14.777V15.8769H16.277ZM14.8403 6.84107L11.0063 15.5754L12.3798 16.1783L16.2138 7.44397L14.8403 6.84107ZM11.693 15.1269H11.4201V16.6269H11.693V15.1269ZM12.1068 15.5754L8.29189 6.88547L6.91841 7.48843L10.7334 16.1784L12.1068 15.5754ZM6.85515 7.18695V15.8769H8.35515V7.18695H6.85515ZM7.60515 15.1269H7.26237V16.6269H7.60515V15.1269ZM8.01237 15.8769V6.6347H6.51237V15.8769H8.01237ZM7.26237 7.3847H7.75114V5.8847H7.26237V7.3847Z" fill="white"/>
</svg>
