<svg width="22" height="22" viewBox="0 0 22 22" fill="none" xmlns="http://www.w3.org/2000/svg">
<path d="M18.1832 1.16922H3.93104C2.80658 1.16922 1.89502 2.13812 1.89502 3.33332V18.482C1.89502 19.6772 2.80658 20.6461 3.93104 20.6461H18.1832C19.3076 20.6461 20.2192 19.6772 20.2192 18.482V3.33332C20.2192 2.13812 19.3076 1.16922 18.1832 1.16922Z" fill="#DE5F5F" stroke="#DE5F5F" stroke-width="2" stroke-linecap="round" stroke-linejoin="round"/>
<path d="M12.0993 11.5428H8.89372V15.4974H8.55095V6.25523H11.4963C12.423 6.25523 13.1593 6.49433 13.7052 6.97252C14.2554 7.45071 14.5304 8.10029 14.5304 8.92125C14.5304 9.55178 14.3337 10.104 13.9401 10.578C13.5508 11.0477 13.0536 11.3397 12.4484 11.454L14.9176 15.4086V15.4974H14.5558L12.0993 11.5428ZM8.89372 11.2001H11.8073C12.5182 11.2001 13.0916 10.9842 13.5275 10.5526C13.9676 10.121 14.1877 9.57717 14.1877 8.92125C14.1877 8.20185 13.9443 7.63479 13.4577 7.22008C12.9753 6.80536 12.313 6.59801 11.4709 6.59801H8.89372V11.2001Z" fill="white"/>
<path d="M12.0993 11.5428L12.7364 11.1471C12.5995 10.9268 12.3586 10.7928 12.0993 10.7928V11.5428ZM8.89372 11.5428V10.7928C8.47951 10.7928 8.14372 11.1286 8.14372 11.5428H8.89372ZM8.89372 15.4974V16.2474C9.30794 16.2474 9.64372 15.9116 9.64372 15.4974H8.89372ZM8.55095 15.4974H7.80095C7.80095 15.9116 8.13674 16.2474 8.55095 16.2474V15.4974ZM8.55095 6.25523V5.50523C8.13674 5.50523 7.80095 5.84102 7.80095 6.25523H8.55095ZM13.7052 6.97252L13.2111 7.53668L13.2132 7.53857L13.7052 6.97252ZM13.9401 10.578L13.3631 10.0989L13.3627 10.0994L13.9401 10.578ZM12.4484 11.454L12.3093 10.717C12.0659 10.7629 11.8609 10.9261 11.7615 11.1529C11.6621 11.3798 11.6811 11.6411 11.8122 11.8512L12.4484 11.454ZM14.9176 15.4086H15.6676C15.6676 15.2681 15.6282 15.1305 15.5538 15.0113L14.9176 15.4086ZM14.9176 15.4974V16.2474C15.3319 16.2474 15.6676 15.9116 15.6676 15.4974H14.9176ZM14.5558 15.4974L13.9187 15.8932C14.0556 16.1135 14.2965 16.2474 14.5558 16.2474V15.4974ZM8.89372 11.2001H8.14372C8.14372 11.6143 8.47951 11.9501 8.89372 11.9501V11.2001ZM13.5275 10.5526L13.0023 10.0171L12.9998 10.0197L13.5275 10.5526ZM13.4577 7.22008L12.9688 7.78882L12.9712 7.79092L13.4577 7.22008ZM8.89372 6.59801V5.84801C8.47951 5.84801 8.14372 6.18379 8.14372 6.59801H8.89372ZM12.0993 10.7928H8.89372V12.2928H12.0993V10.7928ZM8.14372 11.5428V15.4974H9.64372V11.5428H8.14372ZM8.89372 14.7474H8.55095V16.2474H8.89372V14.7474ZM9.30095 15.4974V6.25523H7.80095V15.4974H9.30095ZM8.55095 7.00523H11.4963V5.50523H8.55095V7.00523ZM11.4963 7.00523C12.293 7.00523 12.8364 7.2085 13.2111 7.53668L14.1994 6.40836C13.4823 5.78015 12.553 5.50523 11.4963 5.50523V7.00523ZM13.2132 7.53857C13.5777 7.85538 13.7804 8.2868 13.7804 8.92125H15.2804C15.2804 7.91378 14.9331 7.04603 14.1973 6.40647L13.2132 7.53857ZM13.7804 8.92125C13.7804 9.38127 13.642 9.76295 13.3631 10.0989L14.5171 11.0571C15.0253 10.4451 15.2804 9.7223 15.2804 8.92125H13.7804ZM13.3627 10.0994C13.086 10.4332 12.7444 10.6348 12.3093 10.717L12.5876 12.1909C13.3627 12.0446 14.0156 11.6623 14.5176 11.0566L13.3627 10.0994ZM11.8122 11.8512L14.2815 15.8058L15.5538 15.0113L13.0846 11.0567L11.8122 11.8512ZM14.1676 15.4086V15.4974H15.6676V15.4086H14.1676ZM14.9176 14.7474H14.5558V16.2474H14.9176V14.7474ZM15.1929 15.1017L12.7364 11.1471L11.4622 11.9386L13.9187 15.8932L15.1929 15.1017ZM8.89372 11.9501H11.8073V10.4501H8.89372V11.9501ZM11.8073 11.9501C12.6819 11.9501 13.4565 11.6784 14.0552 11.0855L12.9998 10.0197C12.7267 10.2901 12.3545 10.4501 11.8073 10.4501V11.9501ZM14.0527 11.0881C14.6465 10.5056 14.9377 9.76426 14.9377 8.92125H13.4377C13.4377 9.39009 13.2887 9.73629 13.0024 10.0171L14.0527 11.0881ZM14.9377 8.92125C14.9377 8.01297 14.6201 7.22529 13.9441 6.64924L12.9712 7.79092C13.2686 8.04429 13.4377 8.39073 13.4377 8.92125H14.9377ZM13.9466 6.65134C13.2893 6.08631 12.4336 5.84801 11.4709 5.84801V7.34801C12.1924 7.34801 12.6612 7.52442 12.9688 7.78882L13.9466 6.65134ZM11.4709 5.84801H8.89372V7.34801H11.4709V5.84801ZM8.14372 6.59801V11.2001H9.64372V6.59801H8.14372Z" fill="white"/>
</svg>
