<svg width="21" height="22" viewBox="0 0 21 22" fill="none" xmlns="http://www.w3.org/2000/svg">
<path d="M17.2881 1H3.03602C1.91156 1 1 1.9689 1 3.1641V18.3128C1 19.508 1.91156 20.4769 3.03602 20.4769H17.2881C18.4126 20.4769 19.3242 19.508 19.3242 18.3128V3.1641C19.3242 1.9689 18.4126 1 17.2881 1Z" fill="#8145CE" stroke="#8145CE" stroke-width="2" stroke-linecap="round" stroke-linejoin="round"/>
<path d="M9.25096 12.4609C9.25942 11.987 9.33136 11.5998 9.46678 11.2993C9.60643 10.9946 9.86668 10.6646 10.2475 10.3091C10.6284 9.95361 10.895 9.66797 11.0473 9.45215C11.1997 9.23633 11.3097 9.01204 11.3774 8.7793C11.4494 8.54655 11.4853 8.26725 11.4853 7.94141C11.4853 7.3278 11.3224 6.84538 10.9966 6.49414C10.6707 6.1429 10.2222 5.96729 9.65086 5.96729C9.04149 5.96729 8.56118 6.14925 8.20995 6.51318C7.86294 6.87712 7.68521 7.34473 7.67674 7.91602H7.33397C7.34243 7.23047 7.5646 6.67822 8.00047 6.25928C8.43634 5.84033 8.98648 5.63086 9.65086 5.63086C10.3153 5.63086 10.8442 5.84033 11.2378 6.25928C11.6313 6.67822 11.8281 7.24316 11.8281 7.9541C11.8281 8.44076 11.7329 8.87451 11.5425 9.25537C11.352 9.632 10.9818 10.07 10.4316 10.5693C9.87303 11.0052 9.59373 11.6357 9.59373 12.4609H9.25096ZM9.09862 14.689C9.09862 14.5916 9.13247 14.5091 9.20018 14.4414C9.26789 14.3695 9.35041 14.3335 9.44774 14.3335C9.54507 14.3335 9.62759 14.3695 9.6953 14.4414C9.76724 14.5091 9.80321 14.5916 9.80321 14.689C9.80321 14.7863 9.76724 14.8688 9.6953 14.9365C9.62759 15.0042 9.54507 15.0381 9.44774 15.0381C9.35041 15.0381 9.26789 15.0042 9.20018 14.9365C9.13247 14.8688 9.09862 14.7863 9.09862 14.689Z" fill="white"/>
<path d="M9.25096 12.4609L8.50108 12.4475C8.49749 12.6487 8.5749 12.843 8.71592 12.9865C8.85694 13.1301 9.04973 13.2109 9.25096 13.2109V12.4609ZM9.46678 11.2993L8.78497 10.9868L8.78302 10.9911L9.46678 11.2993ZM11.3774 8.7793L10.6608 8.55779L10.6573 8.5698L11.3774 8.7793ZM8.20995 6.51318L7.67028 5.99234L7.66714 5.99563L8.20995 6.51318ZM7.67674 7.91602V8.66602C8.08662 8.66602 8.42059 8.33696 8.42666 7.92713L7.67674 7.91602ZM7.33397 7.91602L6.58403 7.90676C6.58155 8.10726 6.65947 8.3004 6.80038 8.44306C6.94128 8.58572 7.13345 8.66602 7.33397 8.66602V7.91602ZM8.00047 6.25928L7.48075 5.71855L8.00047 6.25928ZM11.5425 9.25537L12.2118 9.59379L12.2133 9.59078L11.5425 9.25537ZM10.4316 10.5693L10.893 11.1606C10.9077 11.1492 10.9219 11.1372 10.9357 11.1247L10.4316 10.5693ZM9.59373 12.4609V13.2109C10.0079 13.2109 10.3437 12.8752 10.3437 12.4609H9.59373ZM9.20018 14.4414L9.73051 14.9717C9.73586 14.9664 9.74114 14.9609 9.74633 14.9554L9.20018 14.4414ZM9.6953 14.4414L9.14915 14.9554C9.15953 14.9665 9.17024 14.9772 9.18127 14.9876L9.6953 14.4414ZM9.6953 14.9365L9.18127 14.3904C9.17576 14.3956 9.17032 14.4008 9.16497 14.4062L9.6953 14.9365ZM10.0008 12.4743C10.0082 12.061 10.071 11.7839 10.1505 11.6075L8.78302 10.9911C8.59169 11.4157 8.51063 11.913 8.50108 12.4475L10.0008 12.4743ZM10.1486 11.6118C10.2312 11.4314 10.4146 11.1791 10.7593 10.8574L9.7358 9.76079C9.31881 10.15 8.98162 10.5578 8.78498 10.9868L10.1486 11.6118ZM10.7593 10.8574C11.1489 10.4937 11.4618 10.1656 11.6601 9.88466L10.4346 9.01964C10.3282 9.17038 10.1079 9.4135 9.7358 9.76079L10.7593 10.8574ZM11.6601 9.88466C11.856 9.60705 12.0047 9.30817 12.0976 8.98879L10.6573 8.5698C10.6148 8.71592 10.5433 8.86561 10.4346 9.01964L11.6601 9.88466ZM12.094 9.00078C12.1941 8.67675 12.2353 8.31869 12.2353 7.94141H10.7353C10.7353 8.21581 10.7046 8.41635 10.6609 8.55782L12.094 9.00078ZM12.2353 7.94141C12.2353 7.19363 12.034 6.50965 11.5464 5.98406L10.4467 7.00422C10.6108 7.18111 10.7353 7.46197 10.7353 7.94141H12.2353ZM11.5464 5.98406C11.0515 5.45058 10.3872 5.21729 9.65086 5.21729V6.71729C10.0571 6.71729 10.29 6.83523 10.4467 7.00422L11.5464 5.98406ZM9.65086 5.21729C8.88277 5.21729 8.19122 5.45259 7.67029 5.99235L8.7496 7.03402C8.93114 6.84592 9.2002 6.71729 9.65086 6.71729V5.21729ZM7.66714 5.99563C7.17187 6.51506 6.93768 7.17242 6.92682 7.90491L8.42666 7.92713C8.43274 7.51704 8.55401 7.23917 8.75275 7.03074L7.66714 5.99563ZM7.67674 7.16602H7.33397V8.66602H7.67674V7.16602ZM8.08391 7.92527C8.09026 7.41118 8.24903 7.06064 8.5202 6.8L7.48075 5.71855C6.88017 6.2958 6.59461 7.04976 6.58403 7.90676L8.08391 7.92527ZM8.5202 6.8C8.80197 6.52918 9.1593 6.38086 9.65086 6.38086V4.88086C8.81365 4.88086 8.07072 5.15148 7.48075 5.71855L8.5202 6.8ZM9.65086 6.38086C10.1435 6.38086 10.4618 6.52867 10.6911 6.77278L11.7844 5.74577C11.2266 5.15199 10.487 4.88086 9.65086 4.88086V6.38086ZM10.6911 6.77278C10.9248 7.02156 11.0781 7.38653 11.0781 7.9541H12.5781C12.5781 7.0998 12.3378 6.33489 11.7844 5.74577L10.6911 6.77278ZM11.0781 7.9541C11.0781 8.34103 11.003 8.65722 10.8716 8.91996L12.2133 9.59078C12.4628 9.0918 12.5781 8.54048 12.5781 7.9541H11.0781ZM10.8732 8.91696C10.7442 9.17198 10.4534 9.5367 9.92755 10.014L10.9357 11.1247C11.5101 10.6033 11.9599 10.092 12.2118 9.59379L10.8732 8.91696ZM9.97024 9.97805C9.19819 10.5805 8.84373 11.4476 8.84373 12.4609H10.3437C10.3437 11.8239 10.5479 11.4299 10.893 11.1606L9.97024 9.97805ZM9.59373 11.7109H9.25096V13.2109H9.59373V11.7109ZM9.84862 14.689C9.84862 14.729 9.84127 14.7817 9.81788 14.8387C9.7944 14.896 9.76168 14.9406 9.73051 14.9717L8.66985 13.9111C8.45891 14.122 8.34862 14.3964 8.34862 14.689H9.84862ZM9.74633 14.9554C9.71744 14.9861 9.67304 15.0216 9.61254 15.048C9.55179 15.0745 9.49373 15.0835 9.44774 15.0835V13.5835C9.14012 13.5835 8.86106 13.7074 8.65403 13.9274L9.74633 14.9554ZM9.44774 15.0835C9.40175 15.0835 9.34369 15.0745 9.28294 15.048C9.22244 15.0216 9.17804 14.9861 9.14915 14.9554L10.2414 13.9274C10.0344 13.7074 9.75536 13.5835 9.44774 13.5835V15.0835ZM9.18127 14.9876C9.15058 14.9587 9.11508 14.9143 9.08871 14.8538C9.06223 14.793 9.05321 14.735 9.05321 14.689H10.5532C10.5532 14.3813 10.4293 14.1023 10.2093 13.8953L9.18127 14.9876ZM9.05321 14.689C9.05321 14.643 9.06223 14.5849 9.08871 14.5242C9.11508 14.4637 9.15058 14.4193 9.18127 14.3904L10.2093 15.4827C10.4293 15.2756 10.5532 14.9966 10.5532 14.689H9.05321ZM9.16497 14.4062C9.19614 14.375 9.24071 14.3423 9.29796 14.3188C9.35496 14.2954 9.40772 14.2881 9.44774 14.2881V15.7881C9.74031 15.7881 10.0147 15.6778 10.2256 15.4669L9.16497 14.4062ZM9.44774 14.2881C9.48775 14.2881 9.54051 14.2954 9.59752 14.3188C9.65477 14.3423 9.69934 14.375 9.73051 14.4062L8.66985 15.4669C8.88079 15.6778 9.15517 15.7881 9.44774 15.7881V14.2881ZM9.73051 14.4062C9.76168 14.4374 9.7944 14.4819 9.81788 14.5392C9.84127 14.5962 9.84862 14.6489 9.84862 14.689H8.34862C8.34862 14.9815 8.45891 15.2559 8.66985 15.4669L9.73051 14.4062Z" fill="white"/>
</svg>
