<svg width="30" height="30" viewBox="0 0 30 30" fill="none" xmlns="http://www.w3.org/2000/svg">
<path d="M11.1667 9V17.3333" stroke="#172B4D" stroke-width="1.2" stroke-linecap="round" stroke-linejoin="round"/>
<path d="M19.8333 13.1667C21.0299 13.1667 22 12.2339 22 11.0833C22 9.93274 21.0299 9 19.8333 9C18.6367 9 17.6667 9.93274 17.6667 11.0833C17.6667 12.2339 18.6367 13.1667 19.8333 13.1667Z" stroke="#172B4D" stroke-width="1.2" stroke-linecap="round" stroke-linejoin="round"/>
<path d="M11.1667 21.5C12.3633 21.5 13.3333 20.5673 13.3333 19.4167C13.3333 18.2661 12.3633 17.3333 11.1667 17.3333C9.97005 17.3333 9 18.2661 9 19.4167C9 20.5673 9.97005 21.5 11.1667 21.5Z" stroke="#172B4D" stroke-width="1.2" stroke-linecap="round" stroke-linejoin="round"/>
<path d="M19.8333 13.1666C19.8333 14.8243 19.1485 16.414 17.9295 17.5861C16.7106 18.7582 15.0573 19.4167 13.3333 19.4167" stroke="#172B4D" stroke-width="1.2" stroke-linecap="round" stroke-linejoin="round"/>
</svg>
