<svg width="30" height="30" viewBox="0 0 30 30" fill="none" xmlns="http://www.w3.org/2000/svg">
<path d="M11.0833 8V15.5" stroke="#172B4D" stroke-width="1.2" stroke-linecap="round" stroke-linejoin="round"/>
<path d="M18 13.5L13.5 17.502" stroke="#172B4D" stroke-width="1.2" stroke-linecap="round" stroke-linejoin="round"/>
<path d="M11.1667 20.5V22" stroke="#172B4D" stroke-width="1.2" stroke-linecap="round" stroke-linejoin="round"/>
<path d="M20 8V9" stroke="#172B4D" stroke-width="1.2" stroke-linecap="round" stroke-linejoin="round"/>
<path d="M20 14V22" stroke="#172B4D" stroke-width="1.2" stroke-linecap="round" stroke-linejoin="round"/>
<path d="M19.8333 13.6667C21.0299 13.6667 22 12.7339 22 11.5833C22 10.4327 21.0299 9.5 19.8333 9.5C18.6367 9.5 17.6667 10.4327 17.6667 11.5833C17.6667 12.7339 18.6367 13.6667 19.8333 13.6667Z" stroke="#172B4D" stroke-width="1.2" stroke-linecap="round" stroke-linejoin="round"/>
<path d="M11.1667 20C12.3633 20 13.3333 19.0673 13.3333 17.9167C13.3333 16.7661 12.3633 15.8333 11.1667 15.8333C9.97005 15.8333 9 16.7661 9 17.9167C9 19.0673 9.97005 20 11.1667 20Z" stroke="#172B4D" stroke-width="1.2" stroke-linecap="round" stroke-linejoin="round"/>
</svg>
