<svg width="30" height="30" viewBox="0 0 30 30" fill="none" xmlns="http://www.w3.org/2000/svg">
<path d="M19.8333 21.7C21.0299 21.7 22 20.7523 22 19.5833C22 18.4143 21.0299 17.4666 19.8333 17.4666C18.6367 17.4666 17.6667 18.4143 17.6667 19.5833C17.6667 20.7523 18.6367 21.7 19.8333 21.7Z" stroke="#172B4D" stroke-width="1.2" stroke-linecap="round" stroke-linejoin="round"/>
<path d="M11.1667 13.2333C12.3633 13.2333 13.3333 12.2857 13.3333 11.1167C13.3333 9.94766 12.3633 9 11.1667 9C9.97005 9 9 9.94766 9 11.1167C9 12.2857 9.97005 13.2333 11.1667 13.2333Z" stroke="#172B4D" stroke-width="1.2" stroke-linecap="round" stroke-linejoin="round"/>
<path d="M11.1667 21.7V13.2333C11.1667 14.9174 11.8515 16.5326 13.0705 17.7234C14.2895 18.9143 15.9428 19.5833 17.6667 19.5833" stroke="#172B4D" stroke-width="1.2" stroke-linecap="round" stroke-linejoin="round"/>
</svg>
