<svg width="30" height="30" viewBox="0 0 30 30" fill="none" xmlns="http://www.w3.org/2000/svg">
<path d="M14.5 17.4995C16.1569 17.4995 17.5 16.1564 17.5 14.4995C17.5 12.8427 16.1569 11.4995 14.5 11.4995C12.8432 11.4995 11.5 12.8427 11.5 14.4995C11.5 16.1564 12.8432 17.4995 14.5 17.4995Z" stroke="#172B4D" stroke-width="1.2" stroke-linecap="round" stroke-linejoin="round"/>
<path d="M17.5 11.4995V15.2495C17.5 15.8463 17.7371 16.4186 18.159 16.8405C18.581 17.2625 19.1533 17.4995 19.75 17.4995C20.3467 17.4995 20.919 17.2625 21.341 16.8405C21.7629 16.4186 22 15.8463 22 15.2495V14.4995C21.9999 12.8068 21.4272 11.1639 20.375 9.83793C19.3227 8.51197 17.8529 7.58095 16.2045 7.19626C14.556 6.81156 12.826 6.99582 11.2955 7.71906C9.76508 8.4423 8.5243 9.662 7.77495 11.1798C7.0256 12.6976 6.81173 14.4243 7.16813 16.0791C7.52453 17.7339 8.43024 19.2195 9.73798 20.2942C11.0457 21.369 12.6786 21.9698 14.3711 21.9989C16.0635 22.028 17.7161 21.4837 19.06 20.4545" stroke="#172B4D" stroke-width="0.7" stroke-linecap="round" stroke-linejoin="round"/>
</svg>
