<svg width="30" height="30" viewBox="0 0 30 30" fill="none" xmlns="http://www.w3.org/2000/svg">
<path d="M11.4908 9.935C10.8508 9.995 10.3558 10.19 10.0058 10.52C9.66576 10.84 9.49576 11.265 9.49576 11.795C9.49576 12.855 10.1558 13.565 11.4758 13.925C11.5658 13.945 11.6108 13.915 11.6108 13.835V10.055C11.6108 9.975 11.5708 9.935 11.4908 9.935ZM13.9358 18.485C14.3158 18.125 14.5058 17.655 14.5058 17.075C14.5058 16.495 14.3308 16.02 13.9808 15.65C13.6408 15.28 13.1008 15 12.3608 14.81C12.2808 14.79 12.2408 14.82 12.2408 14.9V18.995C12.2408 19.075 12.2858 19.115 12.3758 19.115C13.0458 19.045 13.5658 18.835 13.9358 18.485ZM11.4908 14.615C9.68076 14.165 8.77576 13.225 8.77576 11.795C8.77576 11.075 9.01076 10.495 9.48076 10.055C9.96076 9.605 10.6308 9.35 11.4908 9.29C11.5708 9.29 11.6108 9.245 11.6108 9.155V8.09C11.6108 8 11.6408 7.925 11.7008 7.865C11.7608 7.805 11.8358 7.775 11.9258 7.775C12.0158 7.775 12.0908 7.805 12.1508 7.865C12.2108 7.925 12.2408 8 12.2408 8.09V9.155C12.2408 9.245 12.2858 9.29 12.3758 9.29C13.1458 9.32 13.8808 9.43 14.5808 9.62C14.7908 9.67 14.8958 9.815 14.8958 10.055C14.8958 10.135 14.8608 10.2 14.7908 10.25C14.7308 10.3 14.6608 10.315 14.5808 10.295C13.8208 10.075 13.0858 9.95 12.3758 9.92C12.2858 9.92 12.2408 9.965 12.2408 10.055V13.97C12.2408 14.06 12.2758 14.11 12.3458 14.12C14.2658 14.58 15.2258 15.565 15.2258 17.075C15.2258 17.845 14.9758 18.47 14.4758 18.95C13.9758 19.42 13.2758 19.69 12.3758 19.76C12.2858 19.76 12.2408 19.805 12.2408 19.895V20.96C12.2408 21.05 12.2108 21.125 12.1508 21.185C12.0908 21.245 12.0158 21.275 11.9258 21.275C11.8358 21.275 11.7608 21.245 11.7008 21.185C11.6408 21.125 11.6108 21.05 11.6108 20.96V19.895C11.6108 19.805 11.5708 19.76 11.4908 19.76C10.6508 19.71 9.88076 19.56 9.18076 19.31C8.96076 19.23 8.85076 19.07 8.85076 18.83C8.85076 18.75 8.88576 18.69 8.95576 18.65C9.02576 18.6 9.10076 18.59 9.18076 18.62C9.93076 18.92 10.7008 19.09 11.4908 19.13C11.5708 19.13 11.6108 19.085 11.6108 18.995V14.765C11.6108 14.685 11.5708 14.635 11.4908 14.615Z" fill="#172B4D"/>
<path d="M17.6926 21.8324H22.6926" stroke="#172B4D" stroke-width="1.6" stroke-linecap="round" stroke-linejoin="round"/>
</svg>
